<?xml version="1.0" encoding="UTF-8"?>
<svg width="45px" height="52px" viewBox="0 0 45 52" version="1.1" xmlns="http://www.w3.org/2000/svg" xmlns:xlink="http://www.w3.org/1999/xlink">
    <title>Artboard</title>
    <defs>
        <polygon id="path-1" points="2.68977884e-06 0.0030729702 44.984749 0.0030729702 44.984749 51.9732625 2.68977884e-06 51.9732625"></polygon>
        <path d="M0.019447101,2.61458993 L0.019447101,23.8459815 C0.019447101,26.3245324 0.844698147,28.898185 2.47179916,31.4939897 L2.47179916,31.4939897 C3.90854453,33.7844748 5.96528392,36.0992765 8.58569337,38.3739157 L8.58569337,38.3739157 C12.9448296,42.155112 17.5124238,44.6981151 19.5340885,45.7377143 L19.5340885,45.7377143 C21.55578,44.6981151 26.1233473,42.155112 30.4825105,38.3728469 L30.4825105,38.3728469 C33.102893,36.0992765 35.1596324,33.7844748 36.5963778,31.4939897 L36.5963778,31.4939897 C38.2235326,28.898185 39.0487567,26.3245324 39.0487567,23.8459815 L39.0487567,23.8459815 L39.0487567,2.61458993 C33.6378362,0.938992806 26.7603407,0.0219650565 19.5340885,0.0219650565 L19.5340885,0.0219650565 C12.3078362,0.0219650565 5.4303676,0.938992806 0.019447101,2.61458993" id="path-3"></path>
        <path d="M0.019447101,2.61458993 L0.019447101,23.8459815 C0.019447101,26.3245324 0.844698147,28.898185 2.47179916,31.4939897 L2.47179916,31.4939897 C3.90854453,33.7844748 5.96528392,36.0992765 8.58569337,38.3739157 L8.58569337,38.3739157 C12.9448296,42.155112 17.5124238,44.6981151 19.5340885,45.7377143 L19.5340885,45.7377143 C21.55578,44.6981151 26.1233473,42.155112 30.4825105,38.3728469 L30.4825105,38.3728469 C33.102893,36.0992765 35.1596324,33.7844748 36.5963778,31.4939897 L36.5963778,31.4939897 C38.2235326,28.898185 39.0487567,26.3245324 39.0487567,23.8459815 L39.0487567,23.8459815 L39.0487567,2.61458993 C33.6378362,0.938992806 26.7603407,0.0219650565 19.5340885,0.0219650565 L19.5340885,0.0219650565 C12.3078362,0.0219650565 5.4303676,0.938992806 0.019447101,2.61458993" id="path-5"></path>
        <path d="M0.019447101,2.61458993 L0.019447101,23.8459815 C0.019447101,26.3245324 0.844698147,28.898185 2.47179916,31.4939897 L2.47179916,31.4939897 C3.90854453,33.7844748 5.96528392,36.0992765 8.58569337,38.3739157 L8.58569337,38.3739157 C12.9448296,42.155112 17.5124238,44.6981151 19.5340885,45.7377143 L19.5340885,45.7377143 C21.55578,44.6981151 26.1233473,42.155112 30.4825105,38.3728469 L30.4825105,38.3728469 C33.102893,36.0992765 35.1596324,33.7844748 36.5963778,31.4939897 L36.5963778,31.4939897 C38.2235326,28.898185 39.0487567,26.3245324 39.0487567,23.8459815 L39.0487567,23.8459815 L39.0487567,2.61458993 C33.6378362,0.938992806 26.7603407,0.0219650565 19.5340885,0.0219650565 L19.5340885,0.0219650565 C12.3078362,0.0219650565 5.4303676,0.938992806 0.019447101,2.61458993" id="path-7"></path>
        <path d="M0.019447101,2.61458993 L0.019447101,23.8459815 C0.019447101,26.3245324 0.844698147,28.898185 2.47179916,31.4939897 L2.47179916,31.4939897 C3.90854453,33.7844748 5.96528392,36.0992765 8.58569337,38.3739157 L8.58569337,38.3739157 C12.9448296,42.155112 17.5124238,44.6981151 19.5340885,45.7377143 L19.5340885,45.7377143 C21.55578,44.6981151 26.1233473,42.155112 30.4825105,38.3728469 L30.4825105,38.3728469 C33.102893,36.0992765 35.1596324,33.7844748 36.5963778,31.4939897 L36.5963778,31.4939897 C38.2235326,28.898185 39.0487567,26.3245324 39.0487567,23.8459815 L39.0487567,23.8459815 L39.0487567,2.61458993 C33.6378362,0.938992806 26.7603407,0.0219650565 19.5340885,0.0219650565 L19.5340885,0.0219650565 C12.3078362,0.0219650565 5.4303676,0.938992806 0.019447101,2.61458993" id="path-9"></path>
        <path d="M0.019447101,2.61458993 L0.019447101,23.8459815 C0.019447101,26.3245324 0.844698147,28.898185 2.47179916,31.4939897 L2.47179916,31.4939897 C3.90854453,33.7844748 5.96528392,36.0992765 8.58569337,38.3739157 L8.58569337,38.3739157 C12.9448296,42.155112 17.5124238,44.6981151 19.5340885,45.7377143 L19.5340885,45.7377143 C21.55578,44.6981151 26.1233473,42.155112 30.4825105,38.3728469 L30.4825105,38.3728469 C33.102893,36.0992765 35.1596324,33.7844748 36.5963778,31.4939897 L36.5963778,31.4939897 C38.2235326,28.898185 39.0487567,26.3245324 39.0487567,23.8459815 L39.0487567,23.8459815 L39.0487567,2.61458993 C33.6378362,0.938992806 26.7603407,0.0219650565 19.5340885,0.0219650565 L19.5340885,0.0219650565 C12.3078362,0.0219650565 5.4303676,0.938992806 0.019447101,2.61458993" id="path-11"></path>
        <path d="M0.019447101,2.61458993 L0.019447101,23.8459815 C0.019447101,26.3245324 0.844698147,28.898185 2.47179916,31.4939897 L2.47179916,31.4939897 C3.90854453,33.7844748 5.96528392,36.0992765 8.58569337,38.3739157 L8.58569337,38.3739157 C12.9448296,42.155112 17.5124238,44.6981151 19.5340885,45.7377143 L19.5340885,45.7377143 C21.55578,44.6981151 26.1233473,42.155112 30.4825105,38.3728469 L30.4825105,38.3728469 C33.102893,36.0992765 35.1596324,33.7844748 36.5963778,31.4939897 L36.5963778,31.4939897 C38.2235326,28.898185 39.0487567,26.3245324 39.0487567,23.8459815 L39.0487567,23.8459815 L39.0487567,2.61458993 C33.6378362,0.938992806 26.7603407,0.0219650565 19.5340885,0.0219650565 L19.5340885,0.0219650565 C12.3078362,0.0219650565 5.4303676,0.938992806 0.019447101,2.61458993" id="path-13"></path>
        <path d="M0.019447101,2.61458993 L0.019447101,23.8459815 C0.019447101,26.3245324 0.844698147,28.898185 2.47179916,31.4939897 L2.47179916,31.4939897 C3.90854453,33.7844748 5.96528392,36.0992765 8.58569337,38.3739157 L8.58569337,38.3739157 C12.9448296,42.155112 17.5124238,44.6981151 19.5340885,45.7377143 L19.5340885,45.7377143 C21.55578,44.6981151 26.1233473,42.155112 30.4825105,38.3728469 L30.4825105,38.3728469 C33.102893,36.0992765 35.1596324,33.7844748 36.5963778,31.4939897 L36.5963778,31.4939897 C38.2235326,28.898185 39.0487567,26.3245324 39.0487567,23.8459815 L39.0487567,23.8459815 L39.0487567,2.61458993 C33.6378362,0.938992806 26.7603407,0.0219650565 19.5340885,0.0219650565 L19.5340885,0.0219650565 C12.3078362,0.0219650565 5.4303676,0.938992806 0.019447101,2.61458993" id="path-15"></path>
        <path d="M0.019447101,2.61458993 L0.019447101,23.8459815 C0.019447101,26.3245324 0.844698147,28.898185 2.47179916,31.4939897 L2.47179916,31.4939897 C3.90854453,33.7844748 5.96528392,36.0992765 8.58569337,38.3739157 L8.58569337,38.3739157 C12.9448296,42.155112 17.5124238,44.6981151 19.5340885,45.7377143 L19.5340885,45.7377143 C21.55578,44.6981151 26.1233473,42.155112 30.4825105,38.3728469 L30.4825105,38.3728469 C33.102893,36.0992765 35.1596324,33.7844748 36.5963778,31.4939897 L36.5963778,31.4939897 C38.2235326,28.898185 39.0487567,26.3245324 39.0487567,23.8459815 L39.0487567,23.8459815 L39.0487567,2.61458993 C33.6378362,0.938992806 26.7603407,0.0219650565 19.5340885,0.0219650565 L19.5340885,0.0219650565 C12.3078362,0.0219650565 5.4303676,0.938992806 0.019447101,2.61458993" id="path-17"></path>
        <path d="M0.019447101,2.61458993 L0.019447101,23.8459815 C0.019447101,26.3245324 0.844698147,28.898185 2.47179916,31.4939897 L2.47179916,31.4939897 C3.90854453,33.7844748 5.96528392,36.0992765 8.58569337,38.3739157 L8.58569337,38.3739157 C12.9448296,42.155112 17.5124238,44.6981151 19.5340885,45.7377143 L19.5340885,45.7377143 C21.55578,44.6981151 26.1233473,42.155112 30.4825105,38.3728469 L30.4825105,38.3728469 C33.102893,36.0992765 35.1596324,33.7844748 36.5963778,31.4939897 L36.5963778,31.4939897 C38.2235326,28.898185 39.0487567,26.3245324 39.0487567,23.8459815 L39.0487567,23.8459815 L39.0487567,2.61458993 C33.6378362,0.938992806 26.7603407,0.0219650565 19.5340885,0.0219650565 L19.5340885,0.0219650565 C12.3078362,0.0219650565 5.4303676,0.938992806 0.019447101,2.61458993" id="path-19"></path>
        <path d="M0.019447101,2.61458993 L0.019447101,23.8459815 C0.019447101,26.3245324 0.844698147,28.898185 2.47179916,31.4939897 L2.47179916,31.4939897 C3.90854453,33.7844748 5.96528392,36.0992765 8.58569337,38.3739157 L8.58569337,38.3739157 C12.9448296,42.155112 17.5124238,44.6981151 19.5340885,45.7377143 L19.5340885,45.7377143 C21.55578,44.6981151 26.1233473,42.155112 30.4825105,38.3728469 L30.4825105,38.3728469 C33.102893,36.0992765 35.1596324,33.7844748 36.5963778,31.4939897 L36.5963778,31.4939897 C38.2235326,28.898185 39.0487567,26.3245324 39.0487567,23.8459815 L39.0487567,23.8459815 L39.0487567,2.61458993 C33.6378362,0.938992806 26.7603407,0.0219650565 19.5340885,0.0219650565 L19.5340885,0.0219650565 C12.3078362,0.0219650565 5.4303676,0.938992806 0.019447101,2.61458993" id="path-21"></path>
        <path d="M0.019447101,2.61458993 L0.019447101,23.8459815 C0.019447101,26.3245324 0.844698147,28.898185 2.47179916,31.4939897 L2.47179916,31.4939897 C3.90854453,33.7844748 5.96528392,36.0992765 8.58569337,38.3739157 L8.58569337,38.3739157 C12.9448296,42.155112 17.5124238,44.6981151 19.5340885,45.7377143 L19.5340885,45.7377143 C21.55578,44.6981151 26.1233473,42.155112 30.4825105,38.3728469 L30.4825105,38.3728469 C33.102893,36.0992765 35.1596324,33.7844748 36.5963778,31.4939897 L36.5963778,31.4939897 C38.2235326,28.898185 39.0487567,26.3245324 39.0487567,23.8459815 L39.0487567,23.8459815 L39.0487567,2.61458993 C33.6378362,0.938992806 26.7603407,0.0219650565 19.5340885,0.0219650565 L19.5340885,0.0219650565 C12.3078362,0.0219650565 5.4303676,0.938992806 0.019447101,2.61458993" id="path-23"></path>
        <path d="M0.019447101,2.61458993 L0.019447101,23.8459815 C0.019447101,26.3245324 0.844698147,28.898185 2.47179916,31.4939897 L2.47179916,31.4939897 C3.90854453,33.7844748 5.96528392,36.0992765 8.58569337,38.3739157 L8.58569337,38.3739157 C12.9448296,42.155112 17.5124238,44.6981151 19.5340885,45.7377143 L19.5340885,45.7377143 C21.55578,44.6981151 26.1233473,42.155112 30.4825105,38.3728469 L30.4825105,38.3728469 C33.102893,36.0992765 35.1596324,33.7844748 36.5963778,31.4939897 L36.5963778,31.4939897 C38.2235326,28.898185 39.0487567,26.3245324 39.0487567,23.8459815 L39.0487567,23.8459815 L39.0487567,2.61458993 C33.6378362,0.938992806 26.7603407,0.0219650565 19.5340885,0.0219650565 L19.5340885,0.0219650565 C12.3078362,0.0219650565 5.4303676,0.938992806 0.019447101,2.61458993" id="path-25"></path>
    </defs>
    <g id="Artboard" stroke="none" stroke-width="1" fill="none" fill-rule="evenodd">
        <g id="Group-55">
            <g id="Group-8" transform="translate(0.000000, 0.023782)">
                <g id="Group-3">
                    <mask id="mask-2" fill="white">
                        <use xlink:href="#path-1"></use>
                    </mask>
                    <g id="Clip-2"></g>
                    <path d="M43.4959053,26.7853015 C43.4959053,29.5438134 42.5951521,32.380539 40.818069,35.2151001 C39.3037236,37.6313098 37.1512549,40.0570323 34.4202687,42.4267733 C29.3017809,46.8672152 23.8653344,49.6616674 22.4923906,50.3346479 C21.1194468,49.6616674 15.6830003,46.8672152 10.5645126,42.4267733 C7.8335263,40.0570323 5.68105768,37.6313098 4.1666853,35.2151001 C2.38962911,32.380539 1.48884907,29.5438134 1.48884907,26.7853015 L1.48884907,4.48050812 C7.20288075,2.54288016 14.608864,1.48217102 22.4923906,1.48217102 C30.3758903,1.48217102 37.7818736,2.54288016 43.4959053,4.48050812 L43.4959053,26.7853015 Z M22.4923906,0.00305693731 C13.6985622,0.00305693731 5.7416584,1.31628407 2.68977884e-06,3.43772909 L2.68977884e-06,26.7853015 C2.68977884e-06,39.9767342 18.1863775,49.9363642 22.1201521,51.7989583 C22.2637325,51.8676325 22.3881617,51.9257517 22.4923906,51.9732625 C22.5966195,51.9257517 22.7210218,51.8676325 22.8646022,51.7989583 C26.7983769,49.9363642 44.9847785,39.9767342 44.9847785,26.7853015 L44.9847785,3.43772909 C39.2430959,1.31628407 31.2861922,0.00305693731 22.4923906,0.00305693731 L22.4923906,0.00305693731 Z" id="Fill-1" fill="#002166" mask="url(#mask-2)"></path>
                </g>
                <path d="M43.4959053,4.48049743 L43.4959053,26.7852909 C43.4959053,29.5438294 42.5951521,32.3805283 40.818069,35.2150894 C39.3037236,37.6312991 37.1512549,40.0570216 34.4202687,42.4267626 C29.3017809,46.8672312 23.8653344,49.6616567 22.4923906,50.3346372 C21.1194468,49.6616567 15.6830003,46.8672312 10.5645126,42.4267626 C7.8335263,40.0570216 5.68105768,37.6312991 4.1666853,35.2150894 C2.38962911,32.3805283 1.48884907,29.5438294 1.48884907,26.7852909 L1.48884907,4.48049743 C7.20288075,2.54286948 14.608864,1.48216033 22.4923906,1.48216033 C30.3758903,1.48216033 37.7818736,2.54286948 43.4959053,4.48049743" id="Fill-4" fill="#002166"></path>
                <path d="M42.0075161,26.7853523 C42.0075161,29.2639032 41.1822651,31.8375291 39.5551372,34.4333605 C38.1183918,36.7238456 36.0616524,39.0386473 33.441243,41.3122177 C29.0821067,45.0944828 24.5145126,47.6374859 22.4928479,48.6770851 C20.4712101,47.6374859 15.903616,45.0944828 11.5444528,41.3132865 C8.92404334,39.0386473 6.86730395,36.7238456 5.43055858,34.4333605 C3.80345756,31.8375291 2.97820652,29.2639032 2.97820652,26.7853523 L2.97820652,5.55396074 C8.38912702,3.87836362 15.2665687,2.96130915 22.4928479,2.96130915 C29.719127,2.96130915 36.5965956,3.87836362 42.0075161,5.55396074 L42.0075161,26.7853523 Z M22.4928479,1.48222179 C14.6093751,1.48222179 7.20336491,2.54293094 1.48933323,4.48055889 L1.48933323,26.7853523 C1.48933323,29.5438641 2.39008637,32.3805897 4.16714256,35.2151776 C5.68151494,37.6313873 7.83398356,40.0571098 10.5649967,42.426824 C15.6834576,46.867266 21.119931,49.6617182 22.4928479,50.3347254 C23.8657648,49.6617182 29.3022382,46.867266 34.420699,42.426824 C37.1517391,40.0571098 39.3041808,37.6313873 40.8185801,35.2151776 C42.5956094,32.3805897 43.4963894,29.5438641 43.4963894,26.7853523 L43.4963894,4.48055889 C37.7823577,2.54293094 30.3763476,1.48222179 22.4928479,1.48222179 L22.4928479,1.48222179 Z" id="Fill-6" fill="#FFFFFF"></path>
            </g>
            <g id="Group-45" transform="translate(2.958757, 2.963145)">
                <g id="Group-11">
                    <mask id="mask-4" fill="white">
                        <use xlink:href="#path-3"></use>
                    </mask>
                    <g id="Clip-10"></g>
                    <path d="M7.40896085,30.5273509 C6.51813299,30.9867733 5.61697639,31.5048226 4.70858428,32.0875914 C6.61851554,28.310243 9.94380843,25.3614208 13.9933243,23.9296304 C15.4066417,23.9974228 17.7893822,24.2811248 19.7086201,25.36754 C19.7106913,25.3685821 19.7127624,25.3695975 19.7137845,25.3706664 C20.5476967,25.8434228 21.2936799,26.4673694 21.8327116,27.2906314 C21.8699381,27.3451433 21.9051473,27.4006438 21.9382585,27.4582286 C20.2890475,27.3297517 18.5198455,27.3502738 16.6533542,27.5907671 C12.810763,28.0461279 9.67582576,29.305244 7.42345876,30.5201094 C7.4193165,30.5222471 7.41412522,30.5252933 7.40896085,30.5273509" id="Fill-9" fill="#231F20" mask="url(#mask-4)"></path>
                </g>
                <g id="Group-14">
                    <mask id="mask-6" fill="white">
                        <use xlink:href="#path-5"></use>
                    </mask>
                    <g id="Clip-13"></g>
                    <path d="M16.2519235,23.306734 C17.3238004,23.0898892 18.4339528,22.9768039 19.5710299,22.9768039 C20.2435284,22.9768039 20.9056712,23.0168594 21.5575123,23.0939242 L21.5585344,23.0939242 C22.9821805,23.7816014 25.4342367,25.3325963 26.9893054,28.3462448 C26.0012421,28.0728573 24.9324585,27.8374946 23.7933371,27.6678666 C21.9082594,24.3366333 18.2580681,23.5061297 16.2519235,23.306734" id="Fill-12" fill="#231F20" mask="url(#mask-6)"></path>
                </g>
                <g id="Group-17">
                    <mask id="mask-8" fill="white">
                        <use xlink:href="#path-7"></use>
                    </mask>
                    <g id="Clip-16"></g>
                    <path d="M27.6442289,29.8787805 C28.8174836,33.3282296 28.4760699,37.8281268 27.8056157,41.0206222 C27.0648237,41.5879994 26.2091781,42.1728257 25.5542708,42.8296397 C22.307627,45.4373087 19.6786103,47.0345585 19.6786103,47.0345585 C19.6786103,47.0345585 18.9430096,46.6306099 17.7614435,45.8946469 C17.7604214,45.8936582 17.7583503,45.8926428 17.7573013,45.8916006 C24.0788733,40.0503385 25.6959952,33.480355 24.5051494,29.3545585 C25.5480574,29.4481104 26.5971787,29.6176849 27.6442289,29.8787805" id="Fill-15" fill="#231F20" mask="url(#mask-8)"></path>
                </g>
                <g id="Group-20">
                    <mask id="mask-10" fill="white">
                        <use xlink:href="#path-9"></use>
                    </mask>
                    <g id="Clip-19"></g>
                    <path d="M31.1836766,29.8787805 C30.4708314,29.5498925 29.6565816,29.2127209 28.7523048,28.8961515 C27.2500365,26.1846962 25.2459629,24.4877486 23.643312,23.4763139 C26.4067908,24.1680528 28.8950783,25.5464002 30.9126276,27.4191217 C30.9436408,28.0769778 31.0181476,28.9095122 31.1836766,29.8787805" id="Fill-18" fill="#231F20" mask="url(#mask-10)"></path>
                </g>
                <g id="Group-23">
                    <mask id="mask-12" fill="white">
                        <use xlink:href="#path-11"></use>
                    </mask>
                    <g id="Clip-22"></g>
                    <path d="M31.4661303,31.2684284 C31.7816952,32.5881755 32.3476246,34.397193 33.1960078,35.9122475 C32.520416,36.7479083 31.5292594,37.6164099 30.7905386,38.3883133 C30.7615696,35.1711272 30.2256312,32.3147881 29.4879325,30.4338097 C30.1511243,30.6702413 30.8111961,30.9477172 31.4661303,31.2684284" id="Fill-21" fill="#231F20" mask="url(#mask-12)"></path>
                </g>
                <g id="Group-26">
                    <mask id="mask-14" fill="white">
                        <use xlink:href="#path-13"></use>
                    </mask>
                    <g id="Clip-25"></g>
                    <path d="M32.4842008,30.5078335 C32.2865828,29.7544214 32.1789916,29.131517 32.1189827,28.6607646 C32.9042636,29.5570832 33.5933311,30.5396855 34.1706384,31.5901336 C33.621251,31.2437431 32.9870281,30.7493957 32.4842008,30.5078335" id="Fill-24" fill="#231F20" mask="url(#mask-14)"></path>
                </g>
                <g id="Group-29">
                    <mask id="mask-16" fill="white">
                        <use xlink:href="#path-15"></use>
                    </mask>
                    <g id="Clip-28"></g>
                    <path d="M34.9642092,35.6244224 C34.234795,34.6109836 33.3501805,32.9705519 32.9860114,32.0978818 C33.6802433,32.5183176 34.3662176,32.9921161 35.0407872,33.5245683 C35.0997472,34.4783916 35.0573293,34.7836845 34.9642092,35.6244224" id="Fill-27" fill="#231F20" mask="url(#mask-16)"></path>
                </g>
                <g id="Group-32">
                    <mask id="mask-18" fill="white">
                        <use xlink:href="#path-17"></use>
                    </mask>
                    <g id="Clip-31"></g>
                    <path d="M22.6169677,29.2672407 C12.851107,29.2127289 4.1891853,35.2430989 4.1891853,35.2430989 L4.16747878,35.2164041 C3.89330962,35.4199149 4.91859952,37.4272859 4.91859952,37.4272859 L12.9897382,42.8563959 C20.7329121,38.4582273 23.3401686,33.0394051 22.6169677,29.2672407 M27.6442182,29.8787885 C26.5971949,29.6176929 25.5480735,29.4481184 24.5051387,29.3545665 C25.6960114,33.480363 24.0788894,40.0503466 17.7573174,45.8916086 C17.7583395,45.8926508 17.7604106,45.8936662 17.7614328,45.8946549 C18.9429988,46.6306179 19.6786264,47.0345665 19.6786264,47.0345665 C19.6786264,47.0345665 22.3076163,45.4373168 25.55426,42.8296477 C26.2091943,42.1728337 27.0648129,41.5880074 27.8056049,41.0206302 C28.4760592,37.8281348 28.8174997,33.3282376 27.6442182,29.8787885 M31.4661249,31.2684391 C30.8112176,30.9477279 30.1511458,30.670252 29.4879271,30.4337936 C30.2256258,32.3147988 30.7615643,35.1711112 30.7905332,38.3883239 C31.529254,37.6163938 32.5204375,36.7478923 33.1960293,35.9122582 C32.3476461,34.3972037 31.7817167,32.5881595 31.4661249,31.2684391 M35.0407872,33.5245603 C34.3662176,32.9921081 33.6802433,32.5183096 32.9860114,32.0979005 C33.3501805,32.9705439 34.234795,34.6109755 34.9642092,35.6244144 C35.0573293,34.7836765 35.0997472,34.4784103 35.0407872,33.5245603" id="Fill-30" fill="#FF3916" mask="url(#mask-18)"></path>
                </g>
                <g id="Group-35">
                    <mask id="mask-20" fill="white">
                        <use xlink:href="#path-19"></use>
                    </mask>
                    <g id="Clip-34"></g>
                    <path d="M34.1706464,31.5901309 C33.6212591,31.2437404 32.9870362,30.749393 32.4842089,30.5078308 C32.2865909,29.7544187 32.1789997,29.1315143 32.1189907,28.660762 C32.9042717,29.5570806 33.5933392,30.5396828 34.1706464,31.5901309" id="Fill-33" fill="#FF3916" mask="url(#mask-20)"></path>
                </g>
                <g id="Group-38">
                    <mask id="mask-22" fill="white">
                        <use xlink:href="#path-21"></use>
                    </mask>
                    <g id="Clip-37"></g>
                    <path d="M31.1836766,29.8787805 C30.4708314,29.5498925 29.6565816,29.2127209 28.7523048,28.8961515 C27.2500365,26.1846962 25.2459629,24.4877486 23.643312,23.4763139 C26.4067908,24.1680528 28.8950783,25.5464002 30.9126276,27.4191217 C30.9436408,28.0769778 31.0181476,28.9095122 31.1836766,29.8787805" id="Fill-36" fill="#FF3916" mask="url(#mask-22)"></path>
                </g>
                <g id="Group-41">
                    <mask id="mask-24" fill="white">
                        <use xlink:href="#path-23"></use>
                    </mask>
                    <g id="Clip-40"></g>
                    <path d="M26.9893027,28.3462368 C26.0012394,28.0728761 24.9324558,27.8374865 23.7933344,27.6678586 C21.9082567,24.3366253 18.2580655,23.5061217 16.2519208,23.306726 C17.3237977,23.0898812 18.4339501,22.9767959 19.5710272,22.9767959 C20.2435257,22.9767959 20.9056686,23.0168514 21.5575096,23.0939161 L21.5585317,23.0939161 C22.9821778,23.7816201 25.4342609,25.332615 26.9893027,28.3462368" id="Fill-39" fill="#FF3916" mask="url(#mask-24)"></path>
                </g>
                <g id="Group-44">
                    <mask id="mask-26" fill="white">
                        <use xlink:href="#path-25"></use>
                    </mask>
                    <g id="Clip-43"></g>
                    <path d="M21.9382451,27.4582179 C20.289061,27.329741 18.519832,27.3502631 16.6533676,27.5907564 C12.8107496,28.0461172 9.67583921,29.3052333 7.42344531,30.5201254 C7.41930305,30.5222364 7.41413867,30.5252826 7.4089474,30.5273402 C6.51814644,30.9867893 5.61696294,31.5048386 4.70857083,32.0875807 C6.61850209,28.310259 9.94379498,25.3614101 13.9933377,23.9296197 C15.4066282,23.9974121 17.7893688,24.2811408 19.7086067,25.367556 C19.7107047,25.3685982 19.7127759,25.3696136 19.713798,25.3706557 C20.5477101,25.8434121 21.2936665,26.4673587 21.8326981,27.2906475 C21.8699516,27.3451593 21.9051608,27.4006598 21.9382451,27.4582179" id="Fill-42" fill="#FF3916" mask="url(#mask-26)"></path>
                </g>
            </g>
            <g id="Group-54" transform="translate(5.998207, 6.036115)">
                <polygon id="Fill-46" fill="#FF3916" points="1.66296115 3.22458787 0.988579797 5.33700103 5.76487388 1.89169373 3.52730066 1.89169373 2.87688524 0.00871120247 2.20247699 1.89172045 0.0185917513 1.89169373"></polygon>
                <polygon id="Fill-48" fill="#FFFFFF" points="12.0956638 1.90319198 7.99746294 15.076748 2.66277077 15.076748 1.93427107 6.06674594 4.85674268 3.94639651 5.55880185 12.627858 5.55880185 12.6272434 8.49305469 3.19977163 6.89373909 1.90319198"></polygon>
                <path d="M27.6337469,8.22407256 L28.9729071,3.91499342 L29.3220672,8.22407256 L27.6337469,8.22407256 Z M32.9415143,14.7156553 L32.6799065,11.4854025 L31.9045239,1.90438911 L31.9045239,1.90334697 L24.3988305,1.90334697 L25.9954564,3.19752169 L25.9964785,3.19647955 L22.3019866,15.0769831 L25.5035496,15.0769831 L26.8437857,10.7637622 L29.5273512,10.7637622 L29.8764845,15.0769831 L32.9706984,15.0769831 L32.9415143,14.7156553 Z" id="Fill-50" fill="#FFFFFF"></path>
                <path d="M19.9320224,5.16026249 C19.8903846,5.75991922 19.1888903,6.52669209 17.9512693,6.52669209 L16.8880535,6.52669209 L17.6975693,3.94360678 L18.516069,3.94360678 C18.7135257,3.94360678 18.916066,3.97826454 19.1028174,4.04586989 C19.5860631,4.21857081 19.9702711,4.60531079 19.9320224,5.16026249 M18.5869447,11.0009634 C18.5368879,11.7230312 17.6913828,12.6462584 16.2011647,12.6462584 L14.9714247,12.6462584 L15.9457702,9.53561089 L16.8813022,9.53561089 C17.1192669,9.53561089 17.3634181,9.57697575 17.5884181,9.65858314 C18.1701097,9.86647626 18.6331013,10.3325523 18.5869447,11.0009634 M22.2531133,5.09150812 C22.393197,3.07288736 20.3978114,1.90318129 18.5425365,1.90318129 L13.1465173,1.90318129 L14.7447301,3.19863864 L14.7497869,3.20980822 L11.0448048,15.076764 L16.3868132,15.076764 C16.4273213,15.076764 16.4672645,15.0762029 16.5072077,15.0756417 C16.5465861,15.0745461 16.5865293,15.073985 16.6259077,15.0723015 L16.628705,15.0723015 C16.6669537,15.0706181 16.7052292,15.0689346 16.742913,15.0667168 C16.7805968,15.0650333 16.8182806,15.0622275 16.8554265,15.0594485 C16.8565562,15.0594485 16.857659,15.0588874 16.8587887,15.0588874 C16.8925454,15.0566695 16.9263022,15.0533026 16.9589292,15.0505235 C17.1895777,15.0309634 17.4388126,15.0030127 17.7065801,14.9538185 C21.0633434,14.3385297 21.7327487,11.7006654 21.7288216,10.6449799 C21.7220702,8.71745262 20.1773033,8.01104358 20.1761736,8.00992127 C20.8416518,7.695837 22.1321808,6.83463042 22.2531133,5.09150812" id="Fill-52" fill="#FFFFFF"></path>
            </g>
        </g>
    </g>
</svg>